# xmcd
#
# Track frame offsets:
#	150
#	7461
#	15549
#	23283
#	26439
#	29692
#	36628
#	41707
#	49840
#	54009
#	60630
#	63787
#	70997
#	73038
#	77675
#	83563
#
# Disc length: 1176 seconds
#
# Revision: 1
# Processed by: cddbd v1.5.2PL0 Copyright (c) Steve Scherf et al.
# Submitted via: audiograbber 1.83.01
#
DISCID=cc049610
DTITLE=Gerngross Puchta Becker - Playway 3
DYEAR=1900
DGENRE=
TTITLE0=Playway to English Themensong
TTITLE1=What's your name? PB Starter Unit/2
TTITLE2=Hello PB Unit 1/1
TTITLE3=Give me red PB Unit 2/3
TTITLE4=Baby Face PB Unit 2/3
TTITLE5=Listen to the animals PB Unit 3/7
TTITLE6=Cold and hot PB Unit 4/6
TTITLE7=The clever raccoons PB Unit 5/5
TTITLE8=Bend your knees PB Unit 6/3
TTITLE9=The body rock PB Unit 6/7
TTITLE10=A cap on a cat PB Unit 7/2
TTITLE11=Crazy weather PB Unit 7/8
TTITLE12=Lots of spaghetti PB Unit 8/3
TTITLE13=The earthworm song PB Unit 9/6
TTITLE14=Merry Christmas Special Days Christmas
TTITLE15=Easter bunny Special Days Easter
EXTD=
EXTT0=
EXTT1=
EXTT2=
EXTT3=
EXTT4=
EXTT5=
EXTT6=
EXTT7=
EXTT8=
EXTT9=
EXTT10=
EXTT11=
EXTT12=
EXTT13=
EXTT14=
EXTT15=
PLAYORDER=
